<?xml version="1.0" encoding="UTF-8"?>
<svg xmlns="http://www.w3.org/2000/svg" version="1.1" xmlns:xlink="http://www.w3.org/1999/xlink" viewBox="0 0 208 40">
  <defs>
    <style>
      .cls-1, .cls-2 {
        fill: #fff;
      }

      .cls-2, .cls-3 {
        fill-rule: evenodd;
      }

      .cls-4 {
        fill: none;
      }

      .cls-3 {
        fill: #19b16a;
      }

      .cls-5 {
        clip-path: url(#clippath-1);
      }

      .cls-6 {
        clip-path: url(#clippath);
      }
    </style>
    <clipPath id="clippath">
      <rect class="cls-4" x="48" y="4.7" width="159.3" height="30.7"/>
    </clipPath>
    <clipPath id="clippath-1">
      <rect class="cls-4" width="40" height="40"/>
    </clipPath>
  </defs>
  <!-- Generator: Adobe Illustrator 28.7.1, SVG Export Plug-In . SVG Version: 1.2.0 Build 142)  -->
  <g>
    <g id="Layer_1">
      <g class="cls-6">
        <path class="cls-1" d="M120.7,35h3.2V15.2h4.5c1.9,0,2.7,1.6,2.7,3.1v16.7h3.2v-16.7c0-1.4.8-3.1,2.7-3.1h1.4c.5,0,1,0,1.5.3,1,.3,1.6,1.2,1.6,2.8v16.7h3.2v-16.7c0-3.1-2.2-5.8-5.3-5.8h-1.8c-.5,0-1.1,0-1.6.2-1,.2-1.8.7-2.6,1.6l-.5.6-.5-.6c-.5-.6-1.2-1-1.9-1.3-.7-.3-1.5-.5-2.2-.4h-7.7v22.5ZM91.1,35h3.2V15.2h5.1c1.9,0,2.7,1.6,2.7,3.1v16.7h3.2v-16.7c0-3.3-2.3-5.8-5.6-5.8h-8.7v22.5ZM111.4,35h3.2V12.5h-3.2v22.5ZM150.8,28.9c0,5,2.5,6.1,7.5,6.1s7.5-1.2,7.5-6.1v-10.6c0-3.1-2.2-5.8-5.3-5.8h-4.3c-3.1,0-5.3,2.7-5.3,5.8v10.6ZM156.8,32.2c-.5,0-.9,0-1.4-.3-1-.5-1.4-1.4-1.4-2.7v-10.9c0-1.4.8-3.1,2.7-3.1h3.1c1.9,0,2.7,1.6,2.7,3.1v10.9c0,1.4-.5,2.2-1.4,2.7-.4.2-.9.3-1.4.3-1,0-1.9,0-2.9,0M183,33.4l.3,1.8,2.9-.5c-.2-1.5-.2-3.1-.2-4.6V4.7h-3.2v7.8h-6.1c-3.1,0-5.3,2.7-5.3,5.8v10.9c0,3.1,2,5.8,5,5.8,2,0,4-.4,5.9-1.2l.8-.4ZM182.8,31.2h-.5c-1.6.6-3.3,1-5,1s-2.7-2.1-2.7-3.4v-10.6c0-1.4.8-3.1,2.7-3.1h5.5v16ZM82.4,33.5l.3,1.8,2.9-.5c-.6-5.5-.7-11-1-16.4-.1-3.2-2.1-5.9-5.3-5.9h-8.7v16.7c0,3.1,2,5.8,5,5.8s4-.3,5.8-1.2l.8-.3ZM82.1,31.3h-.5c-1.6.7-3.2.9-4.9,1-2.1,0-2.7-2.2-2.7-3.4v-13.6h4.9c1.8,0,2.6,1.8,2.7,3.1l.5,13ZM59.2,19.3l2.2-.8c1.3-.4,1.9-1.7,1.9-3.2v-4.8c0-3.1-2.2-5.8-5.3-5.8h-9.9v24.2c0,5.5,3.4,6.1,8.7,6.1s8.7-.7,8.7-6.1v-4.4c0-2.2-1.7-4.2-3.9-4.7l-2.3-.5ZM51.2,22h8.2c1.9,0,2.7,1.6,2.7,3.1v4.4c0,1.7-1.2,2.4-2.3,2.6-.6.1-1.1.2-1.7.1h-2.9c-.6,0-1.1,0-1.6-.1-1.2-.2-2.3-.9-2.3-2.6v-7.5ZM51.2,19.3V7.3h6.1c1.9,0,2.7,1.8,2.7,3.1v5.8c0,1.4-.8,3.1-2.7,3.1h-6.1ZM195.6,27.2h10.7v-14.7h-8.7c-3.1,0-5.3,2.7-5.3,5.8v10.2c0,4.6,2.1,6.8,6.8,6.8s5.4,0,8.1-.3v-2.7c-2.7.1-5.4.3-8.1.3s-3.6-1.2-3.6-3.4v-2ZM195.6,24.8v-6.5c0-1.4.8-3.1,2.7-3.1h4.9v9.5h-7.5ZM111.2,7.7h3.6v-3.1h-3.6v3.1Z"/>
      </g>
      <g class="cls-5">
        <g>
          <path class="cls-3" d="M39.9,13.7c-.2-1.2-.7-2.3-1.5-3.2-.8-.9-1.8-1.6-2.9-2l-12-4.4-7.7-2.8,1.5,8.8c1.1,0,2.3.3,3.3.8,1,.5,1.9,1.2,2.7,2.1,2.9,3.5,2.3,8.4-1.1,11.3l-8.8,7.3c-.3.3-.8.4-1.2.4-.4,0-.9-.3-1.1-.6-.2-.3-.4-.7-.4-1L6.5,7.3c0-.2,0-.5,0-.7,0-.2.1-.4.3-.6.1-.2.3-.3.5-.5s.4-.2.6-.2c.2,0,.5,0,.7,0,.2,0,.4.1.6.3.2.1.3.3.5.5s.2.4.2.6l3.6,20.5,6.6-5.5c2-1.7,2.4-4.5.7-6.6-.7-.9-1.7-1.4-2.9-1.6-1.1-.2-2.3,0-3.2.7-.7-3.7-1.3-7.4-2-11.2l-3.6-1.3c-1.1-.4-2.3-.5-3.5-.3-1.2.2-2.3.7-3.2,1.5-.9.7-1.6,1.7-2,2.8C0,6.9-.1,8.1.1,9.3l2.2,12.6,2.2,12.6c.2,1.2.7,2.3,1.5,3.2.8.9,1.8,1.6,2.9,2,1.1.4,2.3.5,3.5.3,1.2-.2,2.3-.7,3.2-1.5l4.3-3.6,7.9-6.6,6.3-5.3,1.1-.9,2.4-2c.9-.7,1.6-1.7,2-2.8.4-1.1.5-2.3.3-3.5Z"/>
          <path class="cls-2" d="M12.1,0c.2,1.1.4,2,.5,3.1l-.5-3.1Z"/>
        </g>
      </g>
    </g>
  </g>
</svg>