<?xml version="1.0" encoding="UTF-8"?>
<svg xmlns="http://www.w3.org/2000/svg" version="1.1" xmlns:xlink="http://www.w3.org/1999/xlink" viewBox="0 0 39.9 40">
  <defs>
    <style>
      .cls-1 {
        fill: #fff;
      }

      .cls-1, .cls-2 {
        fill-rule: evenodd;
      }

      .cls-3 {
        fill: none;
      }

      .cls-2 {
        fill: #19b16a;
      }

      .cls-4 {
        clip-path: url(#clippath);
      }
    </style>
    <clipPath id="clippath">
      <rect class="cls-3" width="40" height="40"/>
    </clipPath>
  </defs>
  <!-- Generator: Adobe Illustrator 28.7.1, SVG Export Plug-In . SVG Version: 1.2.0 Build 142)  -->
  <g>
    <g id="Layer_1">
      <g class="cls-4">
        <g>
          <path class="cls-2" d="M39.9,13.7c-.2-1.2-.7-2.3-1.5-3.2-.8-.9-1.8-1.6-2.9-2l-12-4.4-7.7-2.8,1.5,8.8c1.1,0,2.3.3,3.3.8,1,.5,1.9,1.2,2.7,2.1,2.9,3.5,2.3,8.4-1.1,11.3l-8.8,7.3c-.3.3-.8.4-1.2.4-.4,0-.9-.3-1.1-.6-.2-.3-.4-.7-.4-1L6.5,7.3c0-.2,0-.5,0-.7,0-.2.1-.4.3-.6.1-.2.3-.3.5-.5s.4-.2.6-.2c.2,0,.5,0,.7,0,.2,0,.4.1.6.3.2.1.3.3.5.5s.2.4.2.6l3.6,20.5,6.6-5.5c2-1.7,2.4-4.5.7-6.6-.7-.9-1.7-1.4-2.9-1.6-1.1-.2-2.3,0-3.2.7-.7-3.7-1.3-7.4-2-11.2l-3.6-1.3c-1.1-.4-2.3-.5-3.5-.3-1.2.2-2.3.7-3.2,1.5-.9.7-1.6,1.7-2,2.8C0,6.9-.1,8.1.1,9.3l2.2,12.6,2.2,12.6c.2,1.2.7,2.3,1.5,3.2.8.9,1.8,1.6,2.9,2,1.1.4,2.3.5,3.5.3,1.2-.2,2.3-.7,3.2-1.5l4.3-3.6,7.9-6.6,6.3-5.3,1.1-.9,2.4-2c.9-.7,1.6-1.7,2-2.8.4-1.1.5-2.3.3-3.5Z"/>
          <path class="cls-1" d="M12.1,0c.2,1.1.4,2,.5,3.1l-.5-3.1Z"/>
        </g>
      </g>
    </g>
  </g>
</svg>