<?xml version="1.0" encoding="UTF-8"?>
<svg xmlns="http://www.w3.org/2000/svg" version="1.1" viewBox="0 0 300 75">
  <defs>
    <style>
      .cls-1 {
        fill: none;
      }

      .cls-1, .cls-2 {
        stroke: #f9ed32;
        stroke-miterlimit: 10;
        stroke-width: 3px;
      }

      .cls-2 {
        fill: #f9ed32;
      }
    </style>
  </defs>
  <!-- Generator: Adobe Illustrator 28.7.1, SVG Export Plug-In . SVG Version: 1.2.0 Build 142)  -->
  <g>
    <g id="Layer_1">
      <polyline class="cls-1" points="149.7 13.8 142.4 29.4 122.8 29.4 137.5 44 132.3 57.3 129.9 62.7 149.7 52.1"/>
      <line class="cls-1" x1="129.9" y1="62.7" x2="149.7" y2="52.1"/>
      <polyline class="cls-1" points="149.6 13.8 156.9 29.4 176.5 29.4 161.8 44 167 57.3 169.4 62.7 149.6 52.1"/>
      <line class="cls-1" x1="169.4" y1="62.7" x2="149.6" y2="52.1"/>
      <polyline class="cls-2" points="90.2 13.8 82.9 29.4 63.3 29.4 78 44 72.8 57.3 70.4 62.7 90.2 52.1"/>
      <line class="cls-1" x1="70.4" y1="62.7" x2="90.2" y2="52.1"/>
      <polyline class="cls-2" points="90.1 13.8 97.4 29.4 117 29.4 102.3 44 107.5 57.3 109.9 62.7 90.1 52.1"/>
      <line class="cls-1" x1="109.9" y1="62.7" x2="90.1" y2="52.1"/>
      <polyline class="cls-1" points="149.9 12.9 142.6 28.5 123 28.5 137.7 43.2 132.5 56.4 130.1 61.8 149.9 51.2"/>
      <line class="cls-1" x1="130.1" y1="61.8" x2="149.9" y2="51.2"/>
      <polyline class="cls-1" points="149.8 12.9 157.1 28.5 176.7 28.5 162 43.2 167.2 56.4 169.6 61.8 149.8 51.2"/>
      <line class="cls-1" x1="169.6" y1="61.8" x2="149.8" y2="51.2"/>
      <polyline class="cls-1" points="209.6 12.9 202.3 28.5 182.7 28.5 197.4 43.2 192.2 56.4 189.8 61.8 209.6 51.2"/>
      <line class="cls-1" x1="189.8" y1="61.8" x2="209.6" y2="51.2"/>
      <polyline class="cls-1" points="209.5 12.9 216.8 28.5 236.4 28.5 221.7 43.2 226.9 56.4 229.3 61.8 209.5 51.2"/>
      <line class="cls-1" x1="229.3" y1="61.8" x2="209.5" y2="51.2"/>
      <polyline class="cls-1" points="264.8 12.3 257.5 27.9 237.9 27.9 252.6 42.5 247.4 55.8 245 61.2 264.8 50.6"/>
      <line class="cls-1" x1="245" y1="61.2" x2="264.8" y2="50.6"/>
      <polyline class="cls-1" points="264.7 12.3 272 27.9 291.6 27.9 276.9 42.5 282.1 55.8 284.5 61.2 264.7 50.6"/>
      <line class="cls-1" x1="284.5" y1="61.2" x2="264.7" y2="50.6"/>
      <polyline class="cls-2" points="35.3 13.4 28 29 8.4 29 23.1 43.6 17.9 56.8 15.5 62.3 35.3 51.6"/>
      <line class="cls-1" x1="15.4" y1="61.2" x2="35.2" y2="50.6"/>
      <polyline class="cls-2" points="35.2 13.4 42.5 29 62.1 29 47.4 43.6 52.6 56.8 55 62.3 35.2 51.6"/>
      <line class="cls-1" x1="54.9" y1="61.2" x2="35.1" y2="50.6"/>
    </g>
  </g>
</svg>